<?xml version="1.0" standalone="no"?>
<svg xmlns="http://www.w3.org/2000/svg" width="330.000000pt" height="246.000000pt" viewBox="0 0 330.000000 246.000000" preserveAspectRatio="xMidYMid meet">
<g transform="translate(0.000000,246.000000) scale(0.100000,-0.100000)"
fill="#f8c04e" stroke="none">
<path d="M1529 2294 c34 -15 85 -11 96 7 4 5 -23 9 -62 8 l-68 -1 34 -14z"/>
<path d="M1030 2221 c-262 -109 -508 -343 -674 -640 -75 -133 -120 -241 -166
-396 -67 -230 -75 -289 -75 -575 0 -244 1 -257 23 -305 50 -108 134 -175 245
-195 100 -19 180 12 238 93 35 48 38 69 7 40 -38 -34 -85 -53 -133 -53 -60 0
-103 19 -140 61 -17 19 -52 43 -78 53 -68 26 -107 81 -107 150 0 28 7 64 15
80 17 33 20 82 5 91 -18 11 -40 76 -40 117 0 45 20 90 60 133 35 37 50 89 37
131 -5 18 -6 53 -2 80 5 38 16 57 55 98 27 28 62 68 80 88 17 20 46 42 64 48
32 10 34 14 40 70 8 65 51 157 97 206 29 30 29 30 27 145 -3 109 -2 116 25
161 34 59 89 92 183 112 88 19 117 30 159 62 33 25 144 175 128 173 -4 0 -37
-13 -73 -28z"/>
<path d="M2070 2024 c-14 -2 -51 -9 -83 -15 -321 -58 -647 -293 -871 -628
-212 -316 -318 -626 -355 -1033 -5 -59 -16 -122 -25 -139 -9 -18 -15 -34 -13
-36 2 -1 224 56 493 128 269 72 527 142 574 154 47 13 238 64 425 115 988 266
894 237 939 290 39 47 47 92 36 195 -41 364 -228 673 -511 843 -142 85 -271
122 -449 127 -74 2 -146 2 -160 -1z"/>
</g><g transform="translate(0.000000,246.000000) scale(0.100000,-0.100000)"
fill="#985e33" stroke="none">
<path d="M1480 2315 c0 -2 14 -12 31 -20 24 -13 34 -14 45 -4 11 9 17 9 28 0
11 -9 20 -10 35 -1 24 12 28 22 7 14 -8 -3 -17 -1 -21 5 -6 11 -125 16 -125 6z"/>
<path d="M1077 2246 c-25 -11 -26 -14 -13 -25 9 -7 13 -18 10 -25 -8 -16 26
26 37 47 11 20 5 20 -34 3z"/>
<path d="M1549 2002 c5 -34 6 -35 9 -8 2 16 0 32 -5 37 -5 5 -7 -7 -4 -29z"/>
<path d="M615 1938 c-39 -40 -56 -60 -39 -45 20 18 33 24 40 17 7 -7 24 3 53
31 38 35 42 43 29 55 -12 12 -23 4 -83 -58z"/>
<path d="M1159 1917 c26 -28 31 -32 31 -19 0 4 -13 16 -28 26 l-27 19 24 -26z"/>
<path d="M602 1790 c0 -19 2 -27 5 -17 2 9 2 25 0 35 -3 9 -5 1 -5 -18z"/>
<path d="M1115 1705 c-66 -46 -130 -84 -142 -85 -24 0 -53 34 -53 62 0 23 -7
23 -48 -2 -20 -12 -32 -26 -29 -34 3 -8 18 -59 32 -114 l27 -100 67 31 c98 46
133 68 166 107 16 19 62 69 103 111 76 80 79 90 22 103 -20 5 -49 -11 -145
-79z"/>
<path d="M574 1588 l-29 -33 33 29 c30 28 37 36 29 36 -2 0 -16 -15 -33 -32z"/>
<path d="M447 1212 c-10 -10 -17 -23 -17 -28 0 -6 -21 -29 -46 -52 -45 -40
-46 -43 -40 -84 9 -53 9 -89 0 -151 -5 -42 -11 -52 -40 -69 -19 -11 -39 -28
-44 -38 -18 -33 -11 -87 14 -117 31 -37 34 -135 5 -172 -24 -31 -24 -52 2 -85
15 -19 30 -26 54 -26 27 0 38 -6 52 -27 59 -96 136 -108 192 -32 17 22 30 29
56 29 31 0 35 3 35 28 0 78 50 340 91 477 11 39 10 42 -42 130 -44 74 -54 100
-57 148 -4 49 -7 57 -21 52 -9 -3 -38 -11 -64 -17 -41 -8 -51 -7 -68 8 -10 9
-19 23 -19 31 0 19 -24 16 -43 -5z m111 -114 c21 -21 13 -49 -27 -89 -40 -40
-68 -48 -89 -27 -24 24 -14 64 23 97 37 32 72 40 93 19z m146 -200 c15 -24 -1
-48 -47 -71 -26 -12 -37 -24 -37 -39 0 -47 -62 -77 -90 -43 -15 18 -6 77 18
113 37 57 130 81 156 40z m-268 -142 c38 -38 42 -60 17 -88 -24 -26 -34 -23
-82 26 -43 44 -44 45 -27 70 22 35 51 33 92 -8z m172 -158 c21 -21 13 -49 -27
-89 -43 -43 -56 -47 -83 -22 -27 24 -22 51 16 89 35 35 72 44 94 22z"/>
<path d="M3192 1030 c0 -19 2 -27 5 -17 2 9 2 25 0 35 -3 9 -5 1 -5 -18z"/>
<path d="M103 615 c1 -124 2 -131 4 -41 2 61 8 115 13 121 6 7 6 15 1 21 -5 5
-11 18 -14 29 -3 11 -4 -47 -4 -130z"/>
<path d="M621 246 c-22 -23 -22 -46 -1 -46 9 0 40 51 40 65 0 12 -18 3 -39
-19z"/>
<path d="M722 190 c-16 -26 -15 -35 3 -20 8 6 20 8 27 4 9 -5 8 -2 -2 12 -8
10 -15 20 -15 21 0 1 -6 -7 -13 -17z"/>
</g><g transform="translate(0.000000,246.000000) scale(0.100000,-0.100000)"
fill="#5aa453" stroke="none">
<path d="M1990 2428 c3 -2 32 -29 65 -58 l60 -54 -45 48 c-25 26 -54 52 -65
58 -11 6 -18 9 -15 6z"/>
<path d="M1463 2413 c15 -2 37 -2 50 0 12 2 0 4 -28 4 -27 0 -38 -2 -22 -4z"/>
<path d="M1820 2339 c-19 -12 -59 -44 -87 -71 -98 -91 -161 -100 -293 -38 -47
22 -98 40 -115 40 -61 -1 -107 -33 -163 -113 -28 -41 -52 -79 -52 -84 1 -4 30
-27 67 -51 l66 -43 41 40 c79 77 263 133 332 100 26 -13 29 -19 32 -72 l3 -57
39 20 c124 63 311 109 456 111 79 1 84 2 84 23 0 40 -22 56 -108 76 -43 10
-66 24 -118 72 -77 72 -124 84 -184 47z"/>
<path d="M1045 2335 c-25 -12 -26 -14 -5 -9 28 7 60 23 45 23 -5 0 -23 -6 -40
-14z"/>
<path d="M888 2264 c-38 -20 -36 -28 2 -9 17 9 30 18 30 20 0 7 -1 6 -32 -11z"/>
<path d="M2352 2202 c-29 -14 -32 -19 -26 -46 9 -42 12 -46 35 -46 41 0 186
-43 258 -76 41 -19 75 -34 77 -34 2 0 4 15 4 34 0 41 -22 66 -56 66 -41 0 -91
26 -142 74 -55 51 -90 58 -150 28z"/>
<path d="M735 2164 l-30 -26 33 22 c17 12 32 23 32 26 0 7 -4 5 -35 -22z"/>
<path d="M2716 2171 c17 -10 41 -32 53 -47 14 -18 18 -21 12 -8 -12 26 -68 74
-84 74 -7 0 2 -9 19 -19z"/>
<path d="M619 2073 l-24 -28 30 25 c17 14 32 26 34 28 2 1 0 2 -6 2 -5 0 -20
-12 -34 -27z"/>
<path d="M510 1968 c-40 -46 -88 -108 -63 -83 67 69 124 135 117 135 -5 -1
-29 -24 -54 -52z"/>
<path d="M805 1915 c-32 -8 -59 -24 -77 -44 -25 -28 -28 -38 -28 -107 0 -69 2
-75 18 -69 9 4 33 9 53 12 32 5 39 2 54 -20 l16 -26 35 21 c19 11 34 25 34 31
0 7 -9 47 -20 91 -11 43 -20 89 -20 102 0 27 2 27 -65 9z"/>
<path d="M2810 1926 c0 -2 14 -14 30 -26 17 -12 30 -19 30 -16 0 2 -13 14 -30
26 -16 12 -30 19 -30 16z"/>
<path d="M3000 1743 c13 -18 26 -30 29 -28 3 3 -8 18 -23 33 l-29 27 23 -32z"/>
<path d="M915 1333 c-93 -47 -130 -77 -150 -120 -21 -45 -15 -89 21 -151 l27
-46 57 120 c31 65 71 143 89 173 17 29 31 55 29 56 -2 2 -34 -13 -73 -32z"/>
<path d="M121 1309 c-6 -18 -9 -34 -7 -36 2 -2 9 10 15 28 6 18 9 34 7 36 -2
2 -9 -10 -15 -28z"/>
<path d="M31 310 c0 -14 28 -72 29 -59 0 4 -7 22 -15 40 -8 19 -14 27 -14 19z"/>
<path d="M1525 290 c-13 -5 -14 -9 -5 -9 8 0 24 4 35 9 13 5 14 9 5 9 -8 0
-24 -4 -35 -9z"/>
<path d="M87 192 c10 -18 33 -47 52 -65 l35 -32 -34 40 c-19 22 -43 51 -53 65
-17 24 -17 24 0 -8z"/>
<path d="M1225 210 c-13 -5 -14 -9 -5 -9 8 0 24 4 35 9 13 5 14 9 5 9 -8 0
-24 -4 -35 -9z"/>
<path d="M595 40 c-13 -5 -14 -9 -5 -9 8 0 24 4 35 9 13 5 14 9 5 9 -8 0 -24
-4 -35 -9z"/>
</g><g transform="translate(0.000000,246.000000) scale(0.100000,-0.100000)"
fill="#e44e46" stroke="none">
<path d="M1470 2021 c-53 -16 -108 -51 -143 -90 -20 -23 -37 -44 -37 -49 0 -4
23 -17 51 -29 l50 -23 79 56 c79 55 80 56 80 100 0 42 -2 44 -27 43 -16 0 -39
-4 -53 -8z"/>
<path d="M1025 1954 c-64 -43 -65 -44 -42 -134 l20 -80 81 57 c87 60 96 69 96
94 0 14 -93 89 -110 89 -3 0 -23 -12 -45 -26z"/>
<path d="M697 1571 c-73 -55 -111 -127 -123 -228 -8 -72 -10 -70 77 -48 36 10
80 31 113 56 l54 40 -18 62 c-10 34 -24 81 -30 105 -6 23 -16 42 -23 42 -7 0
-29 -13 -50 -29z"/>
</g><g transform="translate(0.000000,246.000000) scale(0.100000,-0.100000)"
fill="#000000" stroke="none">
<path d="M1756 2421 c-21 -14 -44 -19 -90 -17 -34 1 -66 4 -71 7 -9 5 -220 5
-220 0 0 -1 -29 -4 -64 -7 -66 -5 -212 -39 -246 -57 -11 -6 -26 -12 -34 -13
-30 -5 -184 -86 -253 -132 -91 -62 -212 -164 -211 -177 2 -14 -18 -36 -27 -30
-4 2 -18 -7 -30 -20 -13 -14 -20 -25 -15 -25 4 0 -14 -21 -41 -48 -52 -50
-135 -169 -201 -287 -40 -72 -121 -254 -126 -283 -2 -9 -8 -26 -14 -37 -15
-28 -64 -226 -58 -236 3 -4 0 -11 -6 -14 -5 -4 -8 -13 -5 -21 3 -7 0 -16 -5
-20 -6 -3 -9 -15 -6 -25 3 -10 1 -22 -4 -25 -14 -9 -12 -637 3 -652 7 -7 9
-12 4 -12 -4 0 8 -28 26 -62 39 -75 106 -143 176 -180 50 -27 57 -28 201 -28
91 0 152 4 156 10 4 6 10 8 15 5 5 -3 21 0 36 5 15 6 82 25 148 41 67 17 127
36 134 41 6 6 12 7 12 3 0 -4 6 -2 13 4 8 6 16 8 19 5 6 -5 113 22 132 34 5 3
23 6 40 8 17 1 45 8 61 15 17 7 33 13 38 14 4 2 8 3 10 4 1 1 16 4 32 6 17 1
44 8 60 15 17 7 41 14 55 16 49 6 120 26 126 35 3 5 9 7 14 4 5 -3 11 -1 15 4
3 6 12 8 19 5 7 -3 33 2 58 11 25 8 115 33 199 55 188 48 259 68 279 76 8 4
22 8 30 9 30 4 85 17 95 23 5 3 16 7 25 8 25 4 283 73 300 80 19 9 15 8 82 23
32 7 60 17 64 22 3 5 9 7 13 5 7 -5 67 8 101 21 8 3 22 7 30 8 18 2 128 33
150 42 8 3 24 8 35 10 98 18 173 64 215 130 l30 47 0 162 c0 93 -4 165 -10
169 -5 3 -7 12 -4 19 3 8 0 17 -5 21 -6 3 -9 10 -7 14 5 8 -18 93 -31 114 -4
7 -9 23 -11 36 -4 32 -93 205 -135 264 -19 27 -44 55 -56 63 -12 9 -19 19 -16
24 3 5 -42 53 -100 107 l-105 98 0 67 c0 37 -5 70 -10 73 -6 4 -8 10 -5 15 7
12 -63 82 -75 75 -5 -3 -11 -1 -14 4 -3 5 -26 12 -50 15 -34 5 -52 15 -72 39
-64 78 -154 98 -249 56 -52 -23 -37 -25 -193 23 -18 5 -44 25 -58 44 -47 62
-79 74 -190 74 -80 0 -104 -4 -128 -19z m248 -129 c55 -51 74 -62 122 -73 108
-24 141 -91 48 -96 -127 -7 -178 -14 -254 -33 -90 -22 -173 -51 -220 -75 -35
-18 -47 -6 -52 50 -2 33 -8 42 -32 54 -69 33 -262 -26 -338 -103 l-36 -37 -61
41 c-33 23 -63 46 -67 51 -3 5 19 43 48 86 56 80 102 112 163 113 17 0 68 -18
115 -40 132 -62 195 -53 293 38 122 115 169 120 271 24z m-924 -67 c10 -12 5
-24 -24 -64 -73 -99 -121 -129 -239 -151 -88 -16 -154 -59 -184 -120 -20 -38
-23 -60 -23 -160 0 -112 -1 -118 -25 -140 -40 -38 -74 -104 -94 -182 -16 -68
-20 -74 -59 -96 -23 -13 -51 -38 -64 -55 -12 -18 -40 -50 -63 -73 -50 -49 -70
-110 -54 -168 14 -50 3 -95 -32 -131 -15 -16 -38 -52 -49 -79 -25 -55 -22 -94
12 -163 21 -42 21 -53 -3 -145 -10 -37 -10 -56 -1 -87 14 -45 70 -99 113 -108
16 -3 39 -20 53 -38 31 -40 100 -75 147 -75 20 0 57 11 82 24 35 17 49 20 57
11 14 -17 -39 -76 -95 -104 -63 -31 -165 -27 -240 12 -61 30 -130 102 -156
163 -62 138 -46 565 31 844 92 333 273 643 492 845 86 78 238 182 329 224 76
35 73 35 89 16z m1422 -51 c50 -47 101 -74 139 -74 46 0 76 -53 45 -79 -10 -8
-29 -4 -80 19 -37 17 -110 41 -162 53 -100 24 -108 29 -118 64 -6 18 -1 26 26
43 55 33 94 27 150 -26z m-952 -159 c7 -9 9 -26 5 -45 -9 -40 -146 -145 -179
-136 -30 8 -86 44 -86 56 0 5 18 28 41 51 71 71 188 111 219 74z m913 -19
c257 -77 462 -248 596 -496 76 -142 141 -381 141 -519 0 -46 -6 -66 -29 -103
-17 -26 -44 -54 -62 -64 -18 -9 -157 -50 -308 -91 -152 -41 -501 -134 -776
-208 -275 -74 -673 -182 -885 -239 -289 -78 -388 -101 -397 -92 -9 8 -8 26 2
76 7 36 18 117 24 180 60 630 439 1232 926 1472 189 93 307 119 520 114 138
-3 172 -7 248 -30z m-1339 -45 c83 -58 80 -75 -28 -150 -59 -41 -80 -50 -90
-42 -11 9 -46 121 -46 145 0 10 94 75 108 76 7 0 32 -13 56 -29z m-266 -43 c5
-7 22 -65 37 -128 30 -128 46 -160 76 -160 11 0 76 39 145 86 98 68 129 84
147 78 53 -16 50 -22 -65 -145 -100 -106 -120 -122 -196 -159 -70 -34 -87 -39
-97 -28 -7 7 -24 56 -38 108 -43 159 -39 154 -96 147 -30 -4 -53 -1 -60 6 -6
6 -11 36 -11 68 0 43 5 63 22 84 36 46 113 70 136 43z m-66 -415 l28 -98 -48
-42 c-57 -50 -161 -85 -188 -62 -21 18 -13 113 15 168 39 76 133 161 155 140
5 -5 22 -53 38 -106z m106 -301 c-38 -75 -73 -141 -78 -146 -26 -26 -77 81
-66 139 9 45 60 96 134 134 89 45 90 31 10 -127z m-365 -22 c7 0 32 5 56 11
54 12 67 3 73 -54 3 -28 24 -75 58 -133 51 -87 52 -90 41 -129 -31 -105 -61
-241 -76 -355 -10 -69 -22 -131 -28 -137 -5 -7 -20 -13 -34 -13 -15 0 -38 -15
-63 -41 -36 -38 -43 -41 -76 -36 -40 7 -80 38 -90 71 -9 28 -22 36 -61 36 -22
0 -38 8 -52 26 -26 33 -26 54 -2 85 29 37 26 135 -5 172 -25 30 -32 84 -14
117 5 10 25 27 44 38 29 17 35 27 40 69 9 66 9 103 1 135 -11 43 2 77 40 99
19 11 37 30 41 42 3 12 13 30 22 40 15 17 17 17 45 -13 15 -16 33 -30 40 -30z"/>
<path d="M480 1093 c-36 -25 -49 -45 -50 -74 0 -30 17 -49 45 -49 26 0 95 69
95 96 0 44 -46 57 -90 27z"/>
<path d="M595 901 c-38 -23 -62 -57 -70 -105 -9 -45 6 -66 46 -66 23 0 32 6
40 28 21 51 25 57 58 71 35 16 50 53 31 76 -17 21 -69 19 -105 -4z"/>
<path d="M345 766 c-20 -29 -11 -51 36 -90 35 -30 51 -32 73 -10 25 24 19 53
-18 90 -40 40 -69 43 -91 10z"/>
<path d="M514 576 c-36 -36 -41 -55 -24 -87 17 -30 52 -23 93 19 38 39 46 69
25 90 -22 22 -59 13 -94 -22z"/>
</g>
</svg>
