<?xml version="1.0" standalone="no"?>
<!DOCTYPE svg PUBLIC "-//W3C//DTD SVG 20010904//EN"
 "http://www.w3.org/TR/2001/REC-SVG-20010904/DTD/svg10.dtd">
<svg version="1.0" xmlns="http://www.w3.org/2000/svg"
 width="330.000000pt" height="246.000000pt" viewBox="0 0 330.000000 246.000000"
 preserveAspectRatio="xMidYMid meet">
<metadata>
Created by potrace 1.16, written by Peter Selinger 2001-2019
</metadata>
<g transform="translate(0.000000,246.000000) scale(0.100000,-0.100000)"
fill="#000000" stroke="none">
<path d="M1776 2431 c-58 -31 -59 -31 -140 -21 -150 19 -327 6 -483 -35 -375
-98 -726 -409 -937 -831 -84 -168 -163 -422 -195 -624 -17 -107 -23 -346 -13
-478 9 -113 13 -131 48 -200 46 -94 108 -157 200 -203 65 -32 74 -34 174 -34
85 0 121 5 190 27 47 15 137 40 200 57 63 16 142 37 175 46 33 9 103 28 155
42 52 14 109 29 125 33 17 4 84 22 150 40 66 17 143 38 170 45 28 8 127 34
220 59 94 25 238 64 320 87 237 64 419 113 570 153 424 113 480 135 528 199
56 74 62 95 60 212 -3 219 -96 495 -229 675 -58 80 -173 199 -225 236 -39 27
-39 27 -39 96 0 118 -39 168 -145 190 -42 8 -62 18 -81 42 -64 77 -155 97
-249 55 -52 -23 -37 -25 -193 23 -18 5 -44 25 -59 44 -40 53 -103 86 -176 91
-55 4 -68 2 -121 -26z m178 -22 c23 -6 62 -33 100 -68 34 -32 75 -61 92 -65
16 -4 52 -14 80 -22 49 -15 54 -15 99 5 52 23 133 28 168 10 12 -6 42 -31 67
-54 36 -34 57 -46 101 -55 81 -16 93 -33 98 -136 l3 -85 46 -37 c92 -75 145
-128 204 -206 143 -190 238 -463 241 -691 2 -104 0 -113 -26 -161 -19 -33 -42
-59 -67 -73 -37 -21 -169 -60 -455 -137 -151 -40 -333 -89 -570 -153 -82 -23
-226 -62 -320 -87 -93 -25 -192 -51 -220 -59 -27 -7 -104 -28 -170 -45 -66
-18 -133 -36 -150 -40 -16 -4 -73 -19 -125 -33 -52 -14 -122 -33 -155 -42 -33
-9 -112 -30 -175 -46 -63 -17 -153 -42 -200 -57 -69 -22 -105 -27 -190 -27
-99 0 -109 2 -171 33 -86 43 -121 79 -165 167 -33 66 -37 85 -46 197 -10 132
-4 371 13 478 19 122 78 345 119 449 180 462 461 767 849 925 176 71 409 101
607 76 80 -10 82 -10 139 20 61 32 112 38 179 19z"/>
</g>
</svg>
